<svg xmlns="http://www.w3.org/2000/svg" width="805" height="600"><rect width="805" height="600" x="0" y="0" fill="#FFFFFF" id="background"/><g id="viz"><g transform="translate(0,0)"><g transform="translate(10,20)"><g><path fill="#9467bd" d="M0,294.9695C8.527022201059461,294.9695,8.527022201059461,295.75525000000005,17.054044402118922,295.75525000000005C25.581066603178385,295.75525000000005,25.581066603178385,297.57875,34.108088804237845,297.57875C42.635111005297304,297.57875,42.635111005297304,298.88425,51.162133206356756,298.88425C59.712517112076654,298.88425,59.712517112076654,304.143,68.26290101779655,304.143C76.78992321885602,304.143,76.78992321885602,303.37649999999996,85.31694541991548,303.37649999999996C93.84396762097495,303.37649999999996,93.84396762097495,300.04975,102.37098982203442,300.04975C110.89801202309387,300.04975,110.89801202309387,301.315,119.42503422415332,301.315C127.97541812987322,301.315,127.97541812987322,301.3902499999999,136.5258020355931,301.3902499999999C145.05282423665255,301.3902499999999,145.05282423665255,292.783,153.57984643771204,292.783C162.10686863877152,292.783,162.10686863877152,281.2785,170.63389083983097,281.2785C179.16091304089042,281.2785,179.16091304089042,202.14274999999998,187.6879352419499,202.14274999999998C196.2383191476698,202.14274999999998,196.2383191476698,201.65625,204.7887030533897,201.65625C213.31572525444915,201.65625,213.31572525444915,196.78774999999996,221.8427474555086,196.78774999999996C230.36976965656805,196.78774999999996,230.36976965656805,180.63,238.89679185762753,180.63C247.423814058687,180.63,247.423814058687,167.54275,255.95083625974644,167.54275C264.5002467611055,167.54275,264.5002467611055,161.84649999999996,273.04965726246456,161.84649999999996C281.576679463524,161.84649999999996,281.576679463524,145.03074999999993,290.10370166458347,145.03074999999993C298.63072386564295,145.03074999999993,298.63072386564295,293.9495,307.1577460667024,293.9495C315.68476826776185,293.9495,315.68476826776185,308.086,324.21179046882133,308.086C332.76217437454125,308.086,332.76217437454125,331.68649999999997,341.3125582802611,331.68649999999997C349.8405538856814,331.68649999999997,349.8405538856814,365.03099999999995,358.36854949110176,365.03099999999995C366.8955716921612,365.03099999999995,366.8955716921612,394.4852499999999,375.42259389322066,394.4852499999999C383.94961609428015,394.4852499999999,383.94961609428015,412.8165,392.47663829533957,412.8165C401.0270222010595,412.8165,401.0270222010595,420.4290000000001,409.5774061067794,420.4290000000001C418.1044283078388,420.4290000000001,418.1044283078388,445.076,426.6314505088983,445.076C435.1584727099578,445.076,435.1584727099578,479.12225,443.6854949110172,479.12225C452.2125171120766,479.12225,452.2125171120766,494.83725000000004,460.7395393131361,494.83725000000004C469.289923218856,494.83725000000004,469.289923218856,492.0495,477.84030712457593,492.0495C486.3673293256354,492.0495,486.3673293256354,490.8445,494.89435152669483,490.8445C503.42137372775426,490.8445,503.42137372775426,479.1565,511.94839592881374,479.1565C520.4754181298732,479.1565,520.4754181298732,493.96825000000007,529.0024403309327,493.96825000000007C537.5528242366526,493.96825000000007,537.5528242366526,494.61475,546.1032081423724,494.61475C554.630230343432,494.61475,554.630230343432,485.66175000000004,563.1572525444915,485.66175000000004C571.684274745551,485.66175000000004,571.684274745551,466.28575,580.2112969466103,466.28575C588.7373457433089,466.28575,588.7373457433089,433.56250000000006,597.2633945400075,433.56250000000006C605.8137784457274,433.56250000000006,605.8137784457274,417.0425,614.3641623514474,417.0425C622.8921579568677,417.0425,622.8921579568677,402.7415,631.420153562288,402.7415C639.9471757633474,402.7415,639.9471757633474,404.873,648.4741979644069,404.873C657.0012201654663,404.873,657.0012201654663,402.775502330775,665.5282423665258,402.775502330775C674.0786262722456,402.775502330775,674.0786262722456,403.1143287576125,682.6290101779656,403.1143287576125C691.156032379025,403.1143287576125,691.156032379025,397.15723985911745,699.6830545800844,397.15723985911745C708.2100767811439,397.15723985911745,708.2100767811439,397.43932986808744,716.7370989822035,397.43932986808744C725.2641211832629,397.43932986808744,725.2641211832629,412.62648241976007,733.7911433843224,412.62648241976007C742.3415272900422,412.62648241976007,742.3415272900422,433.93986811526753,750.8919111957622,433.93986811526753C759.4189333968216,433.93986811526753,759.4189333968216,452.307454437125,767.945955597881,452.307454437125C776.4729777989405,452.307454437125,776.4729777989405,474.4526761296,785,474.4526761296L785,474.4526761296C776.4729777989405,474.4526761296,776.4729777989405,452.307454437125,767.945955597881,452.307454437125C759.4189333968216,452.307454437125,759.4189333968216,433.93986811526753,750.8919111957622,433.93986811526753C742.3415272900422,433.93986811526753,742.3415272900422,412.62648241976007,733.7911433843224,412.62648241976007C725.2641211832629,412.62648241976007,725.2641211832629,397.43932986808744,716.7370989822035,397.43932986808744C708.2100767811439,397.43932986808744,708.2100767811439,397.15723985911745,699.6830545800844,397.15723985911745C691.156032379025,397.15723985911745,691.156032379025,403.1143287576125,682.6290101779656,403.1143287576125C674.0786262722456,403.1143287576125,674.0786262722456,402.775502330775,665.5282423665258,402.775502330775C657.0012201654663,402.775502330775,657.0012201654663,404.873,648.4741979644069,404.873C639.9471757633474,404.873,639.9471757633474,402.7415,631.420153562288,402.7415C622.8921579568677,402.7415,622.8921579568677,417.0425,614.3641623514474,417.0425C605.8137784457274,417.0425,605.8137784457274,433.59400000000005,597.2633945400075,433.59400000000005C588.7373457433089,433.59400000000005,588.7373457433089,466.39075,580.2112969466103,466.39075C571.684274745551,466.39075,571.684274745551,485.79125000000005,563.1572525444915,485.79125000000005C554.630230343432,485.79125000000005,554.630230343432,495.07325,546.1032081423724,495.07325C537.5528242366526,495.07325,537.5528242366526,494.79775000000006,529.0024403309327,494.79775000000006C520.4754181298732,494.79775000000006,520.4754181298732,482.94,511.94839592881374,482.94C503.42137372775426,482.94,503.42137372775426,498.1875,494.89435152669483,498.1875C486.3673293256354,498.1875,486.3673293256354,504.76849999999996,477.84030712457593,504.76849999999996C469.289923218856,504.76849999999996,469.289923218856,516.9082500000001,460.7395393131361,516.9082500000001C452.2125171120766,516.9082500000001,452.2125171120766,517.95825,443.6854949110172,517.95825C435.1584727099578,517.95825,435.1584727099578,498.0765,426.6314505088983,498.0765C418.1044283078388,498.0765,418.1044283078388,478.3960000000001,409.5774061067794,478.3960000000001C401.0270222010595,478.3960000000001,401.0270222010595,486.1275,392.47663829533957,486.1275C383.94961609428015,486.1275,383.94961609428015,483.38174999999995,375.42259389322066,483.38174999999995C366.8955716921612,483.38174999999995,366.8955716921612,478.8265,358.36854949110176,478.8265C349.8405538856814,478.8265,349.8405538856814,444.18699999999995,341.3125582802611,444.18699999999995C332.76217437454125,444.18699999999995,332.76217437454125,427.6145,324.21179046882133,427.6145C315.68476826776185,427.6145,315.68476826776185,407.6995,307.1577460667024,407.6995C298.63072386564295,407.6995,298.63072386564295,275.59125,290.10370166458347,275.59125C281.576679463524,275.59125,281.576679463524,285.7605,273.04965726246456,285.7605C264.5002467611055,285.7605,264.5002467611055,288.02675,255.95083625974644,288.02675C247.423814058687,288.02675,247.423814058687,284.72,238.89679185762753,284.72C230.36976965656805,284.72,230.36976965656805,284.27025,221.8427474555086,284.27025C213.31572525444915,284.27025,213.31572525444915,286.05875,204.7887030533897,286.05875C196.2383191476698,286.05875,196.2383191476698,285.57925,187.6879352419499,285.57925C179.16091304089042,285.57925,179.16091304089042,344.66,170.63389083983097,344.66C162.10686863877152,344.66,162.10686863877152,342.5005,153.57984643771204,342.5005C145.05282423665255,342.5005,145.05282423665255,349.54325,136.5258020355931,349.54325C127.97541812987322,349.54325,127.97541812987322,344.43500000000006,119.42503422415332,344.43500000000006C110.89801202309387,344.43500000000006,110.89801202309387,344.32124999999996,102.37098982203442,344.32124999999996C93.84396762097495,344.32124999999996,93.84396762097495,352.29949999999997,85.31694541991548,352.29949999999997C76.78992321885602,352.29949999999997,76.78992321885602,341.26399999999995,68.26290101779655,341.26399999999995C59.712517112076654,341.26399999999995,59.712517112076654,327.89924999999994,51.162133206356756,327.89924999999994C42.635111005297304,327.89924999999994,42.635111005297304,321.79875,34.108088804237845,321.79875C25.581066603178385,321.79875,25.581066603178385,318.49475,17.054044402118922,318.49475C8.527022201059461,318.49475,8.527022201059461,315.2905,0,315.2905Z"><title>Tape</title></path><path fill="#1f77b4" d="M0,315.2905C8.527022201059461,315.2905,8.527022201059461,318.49475,17.054044402118922,318.49475C25.581066603178385,318.49475,25.581066603178385,321.79875,34.108088804237845,321.79875C42.635111005297304,321.79875,42.635111005297304,327.89924999999994,51.162133206356756,327.89924999999994C59.712517112076654,327.89924999999994,59.712517112076654,341.26399999999995,68.26290101779655,341.26399999999995C76.78992321885602,341.26399999999995,76.78992321885602,352.29949999999997,85.31694541991548,352.29949999999997C93.84396762097495,352.29949999999997,93.84396762097495,344.32124999999996,102.37098982203442,344.32124999999996C110.89801202309387,344.32124999999996,110.89801202309387,344.43500000000006,119.42503422415332,344.43500000000006C127.97541812987322,344.43500000000006,127.97541812987322,349.54325,136.5258020355931,349.54325C145.05282423665255,349.54325,145.05282423665255,343.5005,153.57984643771204,343.5005C162.10686863877152,343.5005,162.10686863877152,345.66,170.63389083983097,345.66C179.16091304089042,345.66,179.16091304089042,352.24175,187.6879352419499,352.24175C196.2383191476698,352.24175,196.2383191476698,342.71125,204.7887030533897,342.71125C213.31572525444915,342.71125,213.31572525444915,328.65875,221.8427474555086,328.65875C230.36976965656805,328.65875,230.36976965656805,285.72,238.89679185762753,285.72C247.423814058687,285.72,247.423814058687,289.02675,255.95083625974644,289.02675C264.5002467611055,289.02675,264.5002467611055,286.7605,273.04965726246456,286.7605C281.576679463524,286.7605,281.576679463524,276.59125,290.10370166458347,276.59125C298.63072386564295,276.59125,298.63072386564295,139.90150000000003,307.1577460667024,139.90150000000003C315.68476826776185,139.90150000000003,315.68476826776185,119.07999999999998,324.21179046882133,119.07999999999998C332.76217437454125,119.07999999999998,332.76217437454125,101.18449999999997,341.3125582802611,101.18449999999997C349.8405538856814,101.18449999999997,349.8405538856814,65.80999999999997,358.36854949110176,65.80999999999997C366.8955716921612,65.80999999999997,366.8955716921612,61.394749999999945,375.42259389322066,61.394749999999945C383.94961609428015,61.394749999999945,383.94961609428015,57.65849999999995,392.47663829533957,57.65849999999995C401.0270222010595,57.65849999999995,401.0270222010595,62.85600000000002,409.5774061067794,62.85600000000002C418.1044283078388,62.85600000000002,418.1044283078388,37.053999999999974,426.6314505088983,37.053999999999974C435.1584727099578,37.053999999999974,435.1584727099578,21.767750000000035,443.6854949110172,21.767750000000035C452.2125171120766,21.767750000000035,452.2125171120766,26.33524999999996,460.7395393131361,26.33524999999996C469.289923218856,26.33524999999996,469.289923218856,36.44150000000003,477.84030712457593,36.44150000000003C486.3673293256354,36.44150000000003,486.3673293256354,56.22349999999994,494.89435152669483,56.22349999999994C503.42137372775426,56.22349999999994,503.42137372775426,67.54800000000003,511.94839592881374,67.54800000000003C520.4754181298732,67.54800000000003,520.4754181298732,58.960750000000026,529.0024403309327,58.960750000000026C537.5528242366526,58.960750000000026,537.5528242366526,59.92674999999994,546.1032081423724,59.92674999999994C554.630230343432,59.92674999999994,554.630230343432,69.20875000000001,563.1572525444915,69.20875000000001C571.684274745551,69.20875000000001,571.684274745551,88.60925,580.2112969466103,88.60925C588.7373457433089,88.60925,588.7373457433089,121.40600000000003,597.2633945400075,121.40600000000003C605.8137784457274,121.40600000000003,605.8137784457274,138.9575,614.3641623514474,138.9575C622.8921579568677,138.9575,622.8921579568677,153.2585,631.420153562288,153.2585C639.9471757633474,153.2585,639.9471757633474,151.127,648.4741979644069,151.127C657.0012201654663,151.127,657.0012201654663,259.792479947725,665.5282423665258,259.792479947725C674.0786262722456,259.792479947725,674.0786262722456,256.09619452893753,682.6290101779656,256.09619452893753C691.156032379025,256.09619452893753,691.156032379025,314.16318814183256,699.6830545800844,314.16318814183256C708.2100767811439,314.16318814183256,708.2100767811439,323.02949957861244,716.7370989822035,323.02949957861244C725.2641211832629,323.02949957861244,725.2641211832629,348.67341592164,733.7911433843224,348.67341592164C742.3415272900422,348.67341592164,742.3415272900422,371.3965387655475,750.8919111957622,371.3965387655475C759.4189333968216,371.3965387655475,759.4189333968216,399.82790041782494,767.945955597881,399.82790041782494C776.4729777989405,399.82790041782494,776.4729777989405,422.53809083882,785,422.53809083882L785,444.0674574762701C776.4729777989405,444.0674574762701,776.4729777989405,424.30695315407496,767.945955597881,424.30695315407496C759.4189333968216,424.30695315407496,759.4189333968216,408.4843714615875,750.8919111957622,408.4843714615875C742.3415272900422,408.4843714615875,742.3415272900422,388.30163082631,733.7911433843224,388.30163082631C725.2641211832629,388.30163082631,725.2641211832629,373.68267582956247,716.7370989822035,373.68267582956247C708.2100767811439,373.68267582956247,708.2100767811439,376.4851956146275,699.6830545800844,376.4851956146275C691.156032379025,376.4851956146275,691.156032379025,331.1481588528475,682.6290101779656,331.1481588528475C674.0786262722456,331.1481588528475,674.0786262722456,346.9488601658,665.5282423665258,346.9488601658C657.0012201654663,346.9488601658,657.0012201654663,259.8265,648.4741979644069,259.8265C639.9471757633474,259.8265,639.9471757633474,272.0485,631.420153562288,272.0485C622.8921579568677,272.0485,622.8921579568677,290.308,614.3641623514474,290.308C605.8137784457274,290.308,605.8137784457274,313.13250000000005,597.2633945400075,313.13250000000005C588.7373457433089,313.13250000000005,588.7373457433089,349.99275,580.2112969466103,349.99275C571.684274745551,349.99275,571.684274745551,397.71175000000005,563.1572525444915,397.71175000000005C554.630230343432,397.71175000000005,554.630230343432,428.86524999999995,546.1032081423724,428.86524999999995C537.5528242366526,428.86524999999995,537.5528242366526,460.69425000000007,529.0024403309327,460.69425000000007C520.4754181298732,460.69425000000007,520.4754181298732,462.88,511.94839592881374,462.88C503.42137372775426,462.88,503.42137372775426,478.45300000000003,494.89435152669483,478.45300000000003C486.3673293256354,478.45300000000003,486.3673293256354,491.0495,477.84030712457593,491.0495C469.289923218856,491.0495,469.289923218856,493.83725000000004,460.7395393131361,493.83725000000004C452.2125171120766,493.83725000000004,452.2125171120766,478.12225,443.6854949110172,478.12225C435.1584727099578,478.12225,435.1584727099578,444.076,426.6314505088983,444.076C418.1044283078388,444.076,418.1044283078388,419.4290000000001,409.5774061067794,419.4290000000001C401.0270222010595,419.4290000000001,401.0270222010595,411.8165,392.47663829533957,411.8165C383.94961609428015,411.8165,383.94961609428015,393.4852499999999,375.42259389322066,393.4852499999999C366.8955716921612,393.4852499999999,366.8955716921612,364.03099999999995,358.36854949110176,364.03099999999995C349.8405538856814,364.03099999999995,349.8405538856814,330.68649999999997,341.3125582802611,330.68649999999997C332.76217437454125,330.68649999999997,332.76217437454125,307.086,324.21179046882133,307.086C315.68476826776185,307.086,315.68476826776185,292.9495,307.1577460667024,292.9495C298.63072386564295,292.9495,298.63072386564295,397.60724999999996,290.10370166458347,397.60724999999996C281.576679463524,397.60724999999996,281.576679463524,377.33000000000004,273.04965726246456,377.33000000000004C264.5002467611055,377.33000000000004,264.5002467611055,362.51625,255.95083625974644,362.51625C247.423814058687,362.51625,247.423814058687,341.49600000000004,238.89679185762753,341.49600000000004C230.36976965656805,341.49600000000004,230.36976965656805,361.21225000000004,221.8427474555086,361.21225000000004C213.31572525444915,361.21225000000004,213.31572525444915,356.34375,204.7887030533897,356.34375C196.2383191476698,356.34375,196.2383191476698,355.85725,187.6879352419499,355.85725C179.16091304089042,355.85725,179.16091304089042,346.262,170.63389083983097,346.262C162.10686863877152,346.262,162.10686863877152,343.5005,153.57984643771204,343.5005C145.05282423665255,343.5005,145.05282423665255,349.54325,136.5258020355931,349.54325C127.97541812987322,349.54325,127.97541812987322,344.43500000000006,119.42503422415332,344.43500000000006C110.89801202309387,344.43500000000006,110.89801202309387,344.32124999999996,102.37098982203442,344.32124999999996C93.84396762097495,344.32124999999996,93.84396762097495,352.29949999999997,85.31694541991548,352.29949999999997C76.78992321885602,352.29949999999997,76.78992321885602,341.26399999999995,68.26290101779655,341.26399999999995C59.712517112076654,341.26399999999995,59.712517112076654,327.89924999999994,51.162133206356756,327.89924999999994C42.635111005297304,327.89924999999994,42.635111005297304,321.79875,34.108088804237845,321.79875C25.581066603178385,321.79875,25.581066603178385,318.49475,17.054044402118922,318.49475C8.527022201059461,318.49475,8.527022201059461,315.2905,0,315.2905Z"><title>Disc</title></path><path fill="#ff7f0e" d="M0,315.2905C8.527022201059461,315.2905,8.527022201059461,318.49475,17.054044402118922,318.49475C25.581066603178385,318.49475,25.581066603178385,321.79875,34.108088804237845,321.79875C42.635111005297304,321.79875,42.635111005297304,327.89924999999994,51.162133206356756,327.89924999999994C59.712517112076654,327.89924999999994,59.712517112076654,341.26399999999995,68.26290101779655,341.26399999999995C76.78992321885602,341.26399999999995,76.78992321885602,352.29949999999997,85.31694541991548,352.29949999999997C93.84396762097495,352.29949999999997,93.84396762097495,344.32124999999996,102.37098982203442,344.32124999999996C110.89801202309387,344.32124999999996,110.89801202309387,344.43500000000006,119.42503422415332,344.43500000000006C127.97541812987322,344.43500000000006,127.97541812987322,349.54325,136.5258020355931,349.54325C145.05282423665255,349.54325,145.05282423665255,342.5005,153.57984643771204,342.5005C162.10686863877152,342.5005,162.10686863877152,346.262,170.63389083983097,346.262C179.16091304089042,346.262,179.16091304089042,355.85725,187.6879352419499,355.85725C196.2383191476698,355.85725,196.2383191476698,356.34375,204.7887030533897,356.34375C213.31572525444915,356.34375,213.31572525444915,361.21225000000004,221.8427474555086,361.21225000000004C230.36976965656805,361.21225000000004,230.36976965656805,377.37,238.89679185762753,377.37C247.423814058687,377.37,247.423814058687,389.45725,255.95083625974644,389.45725C264.5002467611055,389.45725,264.5002467611055,395.1535,273.04965726246456,395.1535C281.576679463524,395.1535,281.576679463524,411.96925,290.10370166458347,411.96925C298.63072386564295,411.96925,298.63072386564295,417.09850000000006,307.1577460667024,417.09850000000006C315.68476826776185,417.09850000000006,315.68476826776185,437.92,324.21179046882133,437.92C332.76217437454125,437.92,332.76217437454125,455.8155,341.3125582802611,455.8155C349.8405538856814,455.8155,349.8405538856814,491.19,358.36854949110176,491.19C366.8955716921612,491.19,366.8955716921612,495.60524999999996,375.42259389322066,495.60524999999996C383.94961609428015,495.60524999999996,383.94961609428015,499.3415,392.47663829533957,499.3415C401.0270222010595,499.3415,401.0270222010595,494.14400000000006,409.5774061067794,494.14400000000006C418.1044283078388,494.14400000000006,418.1044283078388,519.946,426.6314505088983,519.946C435.1584727099578,519.946,435.1584727099578,535.23225,443.6854949110172,535.23225C452.2125171120766,535.23225,452.2125171120766,530.66475,460.7395393131361,530.66475C469.289923218856,530.66475,469.289923218856,520.5585,477.84030712457593,520.5585C486.3673293256354,520.5585,486.3673293256354,500.7765,494.89435152669483,500.7765C503.42137372775426,500.7765,503.42137372775426,487.452,511.94839592881374,487.452C520.4754181298732,487.452,520.4754181298732,484.17375000000004,529.0024403309327,484.17375000000004C537.5528242366526,484.17375000000004,537.5528242366526,429.86524999999995,546.1032081423724,429.86524999999995C554.630230343432,429.86524999999995,554.630230343432,398.71175000000005,563.1572525444915,398.71175000000005C571.684274745551,398.71175000000005,571.684274745551,350.99275,580.2112969466103,350.99275C588.7373457433089,350.99275,588.7373457433089,314.13250000000005,597.2633945400075,314.13250000000005C605.8137784457274,314.13250000000005,605.8137784457274,291.308,614.3641623514474,291.308C622.8921579568677,291.308,622.8921579568677,273.0485,631.420153562288,273.0485C639.9471757633474,273.0485,639.9471757633474,260.8265,648.4741979644069,260.8265C657.0012201654663,260.8265,657.0012201654663,153.224497669225,665.5282423665258,153.224497669225C674.0786262722456,153.224497669225,674.0786262722456,152.8856712423875,682.6290101779656,152.8856712423875C691.156032379025,152.8856712423875,691.156032379025,158.8427601408825,699.6830545800844,158.8427601408825C708.2100767811439,158.8427601408825,708.2100767811439,241.15613199591246,716.7370989822035,241.15613199591246C725.2641211832629,241.15613199591246,725.2641211832629,283.04549201494,733.7911433843224,283.04549201494C742.3415272900422,283.04549201494,742.3415272900422,321.3191810582325,750.8919111957622,321.3191810582325C759.4189333968216,321.3191810582325,759.4189333968216,362.529415594875,767.945955597881,362.529415594875C776.4729777989405,362.529415594875,776.4729777989405,391.6431880559,785,391.6431880559L785,421.53809083882C776.4729777989405,421.53809083882,776.4729777989405,398.82790041782494,767.945955597881,398.82790041782494C759.4189333968216,398.82790041782494,759.4189333968216,370.3965387655475,750.8919111957622,370.3965387655475C742.3415272900422,370.3965387655475,742.3415272900422,347.67341592164,733.7911433843224,347.67341592164C725.2641211832629,347.67341592164,725.2641211832629,322.02949957861244,716.7370989822035,322.02949957861244C708.2100767811439,322.02949957861244,708.2100767811439,248.20194924433252,699.6830545800844,248.20194924433252C691.156032379025,248.20194924433252,691.156032379025,255.09619452893753,682.6290101779656,255.09619452893753C674.0786262722456,255.09619452893753,674.0786262722456,258.792479947725,665.5282423665258,258.792479947725C657.0012201654663,258.792479947725,657.0012201654663,362.38950000000006,648.4741979644069,362.38950000000006C639.9471757633474,362.38950000000006,639.9471757633474,367.3175,631.420153562288,367.3175C622.8921579568677,367.3175,622.8921579568677,384.40799999999996,614.3641623514474,384.40799999999996C605.8137784457274,384.40799999999996,605.8137784457274,408.13900000000007,597.2633945400075,408.13900000000007C588.7373457433089,408.13900000000007,588.7373457433089,434.72675,580.2112969466103,434.72675C571.684274745551,434.72675,571.684274745551,456.46175,563.1572525444915,456.46175C554.630230343432,456.46175,554.630230343432,462.21574999999996,546.1032081423724,462.21574999999996C537.5528242366526,462.21574999999996,537.5528242366526,490.59625000000005,529.0024403309327,490.59625000000005C520.4754181298732,490.59625000000005,520.4754181298732,487.452,511.94839592881374,487.452C503.42137372775426,487.452,503.42137372775426,500.7765,494.89435152669483,500.7765C486.3673293256354,500.7765,486.3673293256354,520.5585,477.84030712457593,520.5585C469.289923218856,520.5585,469.289923218856,530.66475,460.7395393131361,530.66475C452.2125171120766,530.66475,452.2125171120766,535.23225,443.6854949110172,535.23225C435.1584727099578,535.23225,435.1584727099578,519.946,426.6314505088983,519.946C418.1044283078388,519.946,418.1044283078388,494.14400000000006,409.5774061067794,494.14400000000006C401.0270222010595,494.14400000000006,401.0270222010595,499.3415,392.47663829533957,499.3415C383.94961609428015,499.3415,383.94961609428015,495.60524999999996,375.42259389322066,495.60524999999996C366.8955716921612,495.60524999999996,366.8955716921612,491.19,358.36854949110176,491.19C349.8405538856814,491.19,349.8405538856814,455.8155,341.3125582802611,455.8155C332.76217437454125,455.8155,332.76217437454125,437.92,324.21179046882133,437.92C315.68476826776185,437.92,315.68476826776185,417.09850000000006,307.1577460667024,417.09850000000006C298.63072386564295,417.09850000000006,298.63072386564295,411.96925,290.10370166458347,411.96925C281.576679463524,411.96925,281.576679463524,395.1535,273.04965726246456,395.1535C264.5002467611055,395.1535,264.5002467611055,389.45725,255.95083625974644,389.45725C247.423814058687,389.45725,247.423814058687,377.37,238.89679185762753,377.37C230.36976965656805,377.37,230.36976965656805,361.21225000000004,221.8427474555086,361.21225000000004C213.31572525444915,361.21225000000004,213.31572525444915,356.34375,204.7887030533897,356.34375C196.2383191476698,356.34375,196.2383191476698,355.85725,187.6879352419499,355.85725C179.16091304089042,355.85725,179.16091304089042,346.262,170.63389083983097,346.262C162.10686863877152,346.262,162.10686863877152,342.5005,153.57984643771204,342.5005C145.05282423665255,342.5005,145.05282423665255,349.54325,136.5258020355931,349.54325C127.97541812987322,349.54325,127.97541812987322,344.43500000000006,119.42503422415332,344.43500000000006C110.89801202309387,344.43500000000006,110.89801202309387,344.32124999999996,102.37098982203442,344.32124999999996C93.84396762097495,344.32124999999996,93.84396762097495,352.29949999999997,85.31694541991548,352.29949999999997C76.78992321885602,352.29949999999997,76.78992321885602,341.26399999999995,68.26290101779655,341.26399999999995C59.712517112076654,341.26399999999995,59.712517112076654,327.89924999999994,51.162133206356756,327.89924999999994C42.635111005297304,327.89924999999994,42.635111005297304,321.79875,34.108088804237845,321.79875C25.581066603178385,321.79875,25.581066603178385,318.49475,17.054044402118922,318.49475C8.527022201059461,318.49475,8.527022201059461,315.2905,0,315.2905Z"><title>Download</title></path><path fill="#2ca02c" d="M0,315.2905C8.527022201059461,315.2905,8.527022201059461,318.49475,17.054044402118922,318.49475C25.581066603178385,318.49475,25.581066603178385,321.79875,34.108088804237845,321.79875C42.635111005297304,321.79875,42.635111005297304,327.89924999999994,51.162133206356756,327.89924999999994C59.712517112076654,327.89924999999994,59.712517112076654,341.26399999999995,68.26290101779655,341.26399999999995C76.78992321885602,341.26399999999995,76.78992321885602,352.29949999999997,85.31694541991548,352.29949999999997C93.84396762097495,352.29949999999997,93.84396762097495,344.32124999999996,102.37098982203442,344.32124999999996C110.89801202309387,344.32124999999996,110.89801202309387,344.43500000000006,119.42503422415332,344.43500000000006C127.97541812987322,344.43500000000006,127.97541812987322,349.54325,136.5258020355931,349.54325C145.05282423665255,349.54325,145.05282423665255,342.5005,153.57984643771204,342.5005C162.10686863877152,342.5005,162.10686863877152,346.262,170.63389083983097,346.262C179.16091304089042,346.262,179.16091304089042,355.85725,187.6879352419499,355.85725C196.2383191476698,355.85725,196.2383191476698,356.34375,204.7887030533897,356.34375C213.31572525444915,356.34375,213.31572525444915,361.21225000000004,221.8427474555086,361.21225000000004C230.36976965656805,361.21225000000004,230.36976965656805,377.37,238.89679185762753,377.37C247.423814058687,377.37,247.423814058687,389.45725,255.95083625974644,389.45725C264.5002467611055,389.45725,264.5002467611055,391.11449999999996,273.04965726246456,391.11449999999996C281.576679463524,391.11449999999996,281.576679463524,405.93875,290.10370166458347,405.93875C298.63072386564295,405.93875,298.63072386564295,408.6995,307.1577460667024,408.6995C315.68476826776185,408.6995,315.68476826776185,428.6145,324.21179046882133,428.6145C332.76217437454125,428.6145,332.76217437454125,445.18699999999995,341.3125582802611,445.18699999999995C349.8405538856814,445.18699999999995,349.8405538856814,479.8265,358.36854949110176,479.8265C366.8955716921612,479.8265,366.8955716921612,484.38174999999995,375.42259389322066,484.38174999999995C383.94961609428015,484.38174999999995,383.94961609428015,487.1275,392.47663829533957,487.1275C401.0270222010595,487.1275,401.0270222010595,479.3960000000001,409.5774061067794,479.3960000000001C418.1044283078388,479.3960000000001,418.1044283078388,499.0765,426.6314505088983,499.0765C435.1584727099578,499.0765,435.1584727099578,518.95825,443.6854949110172,518.95825C452.2125171120766,518.95825,452.2125171120766,517.9082500000001,460.7395393131361,517.9082500000001C469.289923218856,517.9082500000001,469.289923218856,505.76849999999996,477.84030712457593,505.76849999999996C486.3673293256354,505.76849999999996,486.3673293256354,479.45300000000003,494.89435152669483,479.45300000000003C503.42137372775426,479.45300000000003,503.42137372775426,463.88,511.94839592881374,463.88C520.4754181298732,463.88,520.4754181298732,461.69425000000007,529.0024403309327,461.69425000000007C537.5528242366526,461.69425000000007,537.5528242366526,463.21574999999996,546.1032081423724,463.21574999999996C554.630230343432,463.21574999999996,554.630230343432,457.46175,563.1572525444915,457.46175C571.684274745551,457.46175,571.684274745551,435.72675,580.2112969466103,435.72675C588.7373457433089,435.72675,588.7373457433089,421.38800000000003,597.2633945400075,421.38800000000003C605.8137784457274,421.38800000000003,605.8137784457274,385.40799999999996,614.3641623514474,385.40799999999996C622.8921579568677,385.40799999999996,622.8921579568677,385.47350000000006,631.420153562288,385.47350000000006C639.9471757633474,385.47350000000006,639.9471757633474,387.2655,648.4741979644069,387.2655C657.0012201654663,387.2655,657.0012201654663,385.09748804829997,665.5282423665258,385.09748804829997C674.0786262722456,385.09748804829997,674.0786262722456,384.0590830183475,682.6290101779656,384.0590830183475C691.156032379025,384.0590830183475,691.156032379025,377.4851956146275,699.6830545800844,377.4851956146275C708.2100767811439,377.4851956146275,708.2100767811439,387.5523219809325,716.7370989822035,387.5523219809325C725.2641211832629,387.5523219809325,725.2641211832629,402.91253580042496,733.7911433843224,402.91253580042496C742.3415272900422,402.91253580042496,742.3415272900422,424.29500373583755,750.8919111957622,424.29500373583755C759.4189333968216,424.29500373583755,759.4189333968216,441.16495309684,767.945955597881,441.16495309684C776.4729777989405,441.16495309684,776.4729777989405,463.720927803315,785,463.720927803315L785,474.4526761296C776.4729777989405,474.4526761296,776.4729777989405,452.307454437125,767.945955597881,452.307454437125C759.4189333968216,452.307454437125,759.4189333968216,433.93986811526753,750.8919111957622,433.93986811526753C742.3415272900422,433.93986811526753,742.3415272900422,412.62648241976007,733.7911433843224,412.62648241976007C725.2641211832629,412.62648241976007,725.2641211832629,397.43932986808744,716.7370989822035,397.43932986808744C708.2100767811439,397.43932986808744,708.2100767811439,387.4301227684675,699.6830545800844,387.4301227684675C691.156032379025,387.4301227684675,691.156032379025,394.63419917134746,682.6290101779656,394.63419917134746C674.0786262722456,394.63419917134746,674.0786262722456,395.98418833402,665.5282423665258,395.98418833402C657.0012201654663,395.98418833402,657.0012201654663,399.53299999999996,648.4741979644069,399.53299999999996C639.9471757633474,399.53299999999996,639.9471757633474,398.5495,631.420153562288,398.5495C622.8921579568677,398.5495,622.8921579568677,400.0625,614.3641623514474,400.0625C605.8137784457274,400.0625,605.8137784457274,429.4765,597.2633945400075,429.4765C588.7373457433089,429.4765,588.7373457433089,452.88725,580.2112969466103,452.88725C571.684274745551,452.88725,571.684274745551,473.4007500000001,563.1572525444915,473.4007500000001C554.630230343432,473.4007500000001,554.630230343432,484.71975,546.1032081423724,484.71975C537.5528242366526,484.71975,537.5528242366526,483.17375000000004,529.0024403309327,483.17375000000004C520.4754181298732,483.17375000000004,520.4754181298732,478.1565,511.94839592881374,478.1565C503.42137372775426,478.1565,503.42137372775426,489.8445,494.89435152669483,489.8445C486.3673293256354,489.8445,486.3673293256354,517.5005,477.84030712457593,517.5005C469.289923218856,517.5005,469.289923218856,527.77475,460.7395393131361,527.77475C452.2125171120766,527.77475,452.2125171120766,532.1427500000001,443.6854949110172,532.1427500000001C435.1584727099578,532.1427500000001,435.1584727099578,516.8565,426.6314505088983,516.8565C418.1044283078388,516.8565,418.1044283078388,490.7325000000001,409.5774061067794,490.7325000000001C401.0270222010595,490.7325000000001,401.0270222010595,495.391,392.47663829533957,495.391C383.94961609428015,495.391,383.94961609428015,492.0922499999999,375.42259389322066,492.0922499999999C366.8955716921612,492.0922499999999,366.8955716921612,487.915,358.36854949110176,487.915C349.8405538856814,487.915,349.8405538856814,452.6525,341.3125582802611,452.6525C332.76217437454125,452.6525,332.76217437454125,434.1235,324.21179046882133,434.1235C315.68476826776185,434.1235,315.68476826776185,412.833,307.1577460667024,412.833C298.63072386564295,412.833,298.63072386564295,411.96925,290.10370166458347,411.96925C281.576679463524,411.96925,281.576679463524,395.1535,273.04965726246456,395.1535C264.5002467611055,395.1535,264.5002467611055,389.45725,255.95083625974644,389.45725C247.423814058687,389.45725,247.423814058687,377.37,238.89679185762753,377.37C230.36976965656805,377.37,230.36976965656805,361.21225000000004,221.8427474555086,361.21225000000004C213.31572525444915,361.21225000000004,213.31572525444915,356.34375,204.7887030533897,356.34375C196.2383191476698,356.34375,196.2383191476698,355.85725,187.6879352419499,355.85725C179.16091304089042,355.85725,179.16091304089042,346.262,170.63389083983097,346.262C162.10686863877152,346.262,162.10686863877152,342.5005,153.57984643771204,342.5005C145.05282423665255,342.5005,145.05282423665255,349.54325,136.5258020355931,349.54325C127.97541812987322,349.54325,127.97541812987322,344.43500000000006,119.42503422415332,344.43500000000006C110.89801202309387,344.43500000000006,110.89801202309387,344.32124999999996,102.37098982203442,344.32124999999996C93.84396762097495,344.32124999999996,93.84396762097495,352.29949999999997,85.31694541991548,352.29949999999997C76.78992321885602,352.29949999999997,76.78992321885602,341.26399999999995,68.26290101779655,341.26399999999995C59.712517112076654,341.26399999999995,59.712517112076654,327.89924999999994,51.162133206356756,327.89924999999994C42.635111005297304,327.89924999999994,42.635111005297304,321.79875,34.108088804237845,321.79875C25.581066603178385,321.79875,25.581066603178385,318.49475,17.054044402118922,318.49475C8.527022201059461,318.49475,8.527022201059461,315.2905,0,315.2905Z"><title>Other</title></path><path fill="#d62728" d="M0,315.2905C8.527022201059461,315.2905,8.527022201059461,318.49475,17.054044402118922,318.49475C25.581066603178385,318.49475,25.581066603178385,321.79875,34.108088804237845,321.79875C42.635111005297304,321.79875,42.635111005297304,327.89924999999994,51.162133206356756,327.89924999999994C59.712517112076654,327.89924999999994,59.712517112076654,341.26399999999995,68.26290101779655,341.26399999999995C76.78992321885602,341.26399999999995,76.78992321885602,352.29949999999997,85.31694541991548,352.29949999999997C93.84396762097495,352.29949999999997,93.84396762097495,344.32124999999996,102.37098982203442,344.32124999999996C110.89801202309387,344.32124999999996,110.89801202309387,344.43500000000006,119.42503422415332,344.43500000000006C127.97541812987322,344.43500000000006,127.97541812987322,349.54325,136.5258020355931,349.54325C145.05282423665255,349.54325,145.05282423665255,342.5005,153.57984643771204,342.5005C162.10686863877152,342.5005,162.10686863877152,346.262,170.63389083983097,346.262C179.16091304089042,346.262,179.16091304089042,355.85725,187.6879352419499,355.85725C196.2383191476698,355.85725,196.2383191476698,356.34375,204.7887030533897,356.34375C213.31572525444915,356.34375,213.31572525444915,361.21225000000004,221.8427474555086,361.21225000000004C230.36976965656805,361.21225000000004,230.36976965656805,377.37,238.89679185762753,377.37C247.423814058687,377.37,247.423814058687,388.45725,255.95083625974644,388.45725C264.5002467611055,388.45725,264.5002467611055,395.1535,273.04965726246456,395.1535C281.576679463524,395.1535,281.576679463524,411.96925,290.10370166458347,411.96925C298.63072386564295,411.96925,298.63072386564295,417.09850000000006,307.1577460667024,417.09850000000006C315.68476826776185,417.09850000000006,315.68476826776185,437.92,324.21179046882133,437.92C332.76217437454125,437.92,332.76217437454125,455.8155,341.3125582802611,455.8155C349.8405538856814,455.8155,349.8405538856814,491.19,358.36854949110176,491.19C366.8955716921612,491.19,366.8955716921612,495.60524999999996,375.42259389322066,495.60524999999996C383.94961609428015,495.60524999999996,383.94961609428015,499.3415,392.47663829533957,499.3415C401.0270222010595,499.3415,401.0270222010595,494.14400000000006,409.5774061067794,494.14400000000006C418.1044283078388,494.14400000000006,418.1044283078388,519.946,426.6314505088983,519.946C435.1584727099578,519.946,435.1584727099578,535.23225,443.6854949110172,535.23225C452.2125171120766,535.23225,452.2125171120766,530.66475,460.7395393131361,530.66475C469.289923218856,530.66475,469.289923218856,520.5585,477.84030712457593,520.5585C486.3673293256354,520.5585,486.3673293256354,500.7765,494.89435152669483,500.7765C503.42137372775426,500.7765,503.42137372775426,486.452,511.94839592881374,486.452C520.4754181298732,486.452,520.4754181298732,495.79775000000006,529.0024403309327,495.79775000000006C537.5528242366526,495.79775000000006,537.5528242366526,485.71975,546.1032081423724,485.71975C554.630230343432,485.71975,554.630230343432,474.4007500000001,563.1572525444915,474.4007500000001C571.684274745551,474.4007500000001,571.684274745551,453.88725,580.2112969466103,453.88725C588.7373457433089,453.88725,588.7373457433089,409.13900000000007,597.2633945400075,409.13900000000007C605.8137784457274,409.13900000000007,605.8137784457274,401.0625,614.3641623514474,401.0625C622.8921579568677,401.0625,622.8921579568677,368.3175,631.420153562288,368.3175C639.9471757633474,368.3175,639.9471757633474,363.38950000000006,648.4741979644069,363.38950000000006C657.0012201654663,363.38950000000006,657.0012201654663,347.9488601658,665.5282423665258,347.9488601658C674.0786262722456,347.9488601658,674.0786262722456,332.1481588528475,682.6290101779656,332.1481588528475C691.156032379025,332.1481588528475,691.156032379025,249.20194924433252,699.6830545800844,249.20194924433252C708.2100767811439,249.20194924433252,708.2100767811439,158.56067013191253,716.7370989822035,158.56067013191253C725.2641211832629,158.56067013191253,725.2641211832629,143.37351758024002,733.7911433843224,143.37351758024002C742.3415272900422,143.37351758024002,742.3415272900422,122.06013188473253,750.8919111957622,122.06013188473253C759.4189333968216,122.06013188473253,759.4189333968216,103.69254556287505,767.945955597881,103.69254556287505C776.4729777989405,103.69254556287505,776.4729777989405,81.54732387040002,785,81.54732387040002L785,390.6431880559C776.4729777989405,390.6431880559,776.4729777989405,361.529415594875,767.945955597881,361.529415594875C759.4189333968216,361.529415594875,759.4189333968216,320.3191810582325,750.8919111957622,320.3191810582325C742.3415272900422,320.3191810582325,742.3415272900422,282.04549201494,733.7911433843224,282.04549201494C725.2641211832629,282.04549201494,725.2641211832629,240.15613199591246,716.7370989822035,240.15613199591246C708.2100767811439,240.15613199591246,708.2100767811439,313.16318814183256,699.6830545800844,313.16318814183256C691.156032379025,313.16318814183256,691.156032379025,383.0590830183475,682.6290101779656,383.0590830183475C674.0786262722456,383.0590830183475,674.0786262722456,384.09748804829997,665.5282423665258,384.09748804829997C657.0012201654663,384.09748804829997,657.0012201654663,386.2655,648.4741979644069,386.2655C639.9471757633474,386.2655,639.9471757633474,384.47350000000006,631.420153562288,384.47350000000006C622.8921579568677,384.47350000000006,622.8921579568677,413.722,614.3641623514474,413.722C605.8137784457274,413.722,605.8137784457274,420.38800000000003,597.2633945400075,420.38800000000003C588.7373457433089,420.38800000000003,588.7373457433089,463.34425,580.2112969466103,463.34425C571.684274745551,463.34425,571.684274745551,482.76575,563.1572525444915,482.76575C554.630230343432,482.76575,554.630230343432,491.65575,546.1032081423724,491.65575C537.5528242366526,491.65575,537.5528242366526,496.03925000000004,529.0024403309327,496.03925000000004C520.4754181298732,496.03925000000004,520.4754181298732,486.452,511.94839592881374,486.452C503.42137372775426,486.452,503.42137372775426,500.7765,494.89435152669483,500.7765C486.3673293256354,500.7765,486.3673293256354,520.5585,477.84030712457593,520.5585C469.289923218856,520.5585,469.289923218856,530.66475,460.7395393131361,530.66475C452.2125171120766,530.66475,452.2125171120766,535.23225,443.6854949110172,535.23225C435.1584727099578,535.23225,435.1584727099578,519.946,426.6314505088983,519.946C418.1044283078388,519.946,418.1044283078388,494.14400000000006,409.5774061067794,494.14400000000006C401.0270222010595,494.14400000000006,401.0270222010595,499.3415,392.47663829533957,499.3415C383.94961609428015,499.3415,383.94961609428015,495.60524999999996,375.42259389322066,495.60524999999996C366.8955716921612,495.60524999999996,366.8955716921612,491.19,358.36854949110176,491.19C349.8405538856814,491.19,349.8405538856814,455.8155,341.3125582802611,455.8155C332.76217437454125,455.8155,332.76217437454125,437.92,324.21179046882133,437.92C315.68476826776185,437.92,315.68476826776185,417.09850000000006,307.1577460667024,417.09850000000006C298.63072386564295,417.09850000000006,298.63072386564295,411.96925,290.10370166458347,411.96925C281.576679463524,411.96925,281.576679463524,395.1535,273.04965726246456,395.1535C264.5002467611055,395.1535,264.5002467611055,388.45725,255.95083625974644,388.45725C247.423814058687,388.45725,247.423814058687,377.37,238.89679185762753,377.37C230.36976965656805,377.37,230.36976965656805,361.21225000000004,221.8427474555086,361.21225000000004C213.31572525444915,361.21225000000004,213.31572525444915,356.34375,204.7887030533897,356.34375C196.2383191476698,356.34375,196.2383191476698,355.85725,187.6879352419499,355.85725C179.16091304089042,355.85725,179.16091304089042,346.262,170.63389083983097,346.262C162.10686863877152,346.262,162.10686863877152,342.5005,153.57984643771204,342.5005C145.05282423665255,342.5005,145.05282423665255,349.54325,136.5258020355931,349.54325C127.97541812987322,349.54325,127.97541812987322,344.43500000000006,119.42503422415332,344.43500000000006C110.89801202309387,344.43500000000006,110.89801202309387,344.32124999999996,102.37098982203442,344.32124999999996C93.84396762097495,344.32124999999996,93.84396762097495,352.29949999999997,85.31694541991548,352.29949999999997C76.78992321885602,352.29949999999997,76.78992321885602,341.26399999999995,68.26290101779655,341.26399999999995C59.712517112076654,341.26399999999995,59.712517112076654,327.89924999999994,51.162133206356756,327.89924999999994C42.635111005297304,327.89924999999994,42.635111005297304,321.79875,34.108088804237845,321.79875C25.581066603178385,321.79875,25.581066603178385,318.49475,17.054044402118922,318.49475C8.527022201059461,318.49475,8.527022201059461,315.2905,0,315.2905Z"><title>Streaming</title></path><path fill="#8c564b" d="M0,243.70950000000005C8.527022201059461,243.70950000000005,8.527022201059461,240.50525,17.054044402118922,240.50525C25.581066603178385,240.50525,25.581066603178385,237.20125,34.108088804237845,237.20125C42.635111005297304,237.20125,42.635111005297304,231.10075000000003,51.162133206356756,231.10075000000003C59.712517112076654,231.10075000000003,59.712517112076654,217.73600000000005,68.26290101779655,217.73600000000005C76.78992321885602,217.73600000000005,76.78992321885602,206.70049999999995,85.31694541991548,206.70049999999995C93.84396762097495,206.70049999999995,93.84396762097495,214.67875,102.37098982203442,214.67875C110.89801202309387,214.67875,110.89801202309387,214.56500000000003,119.42503422415332,214.56500000000003C127.97541812987322,214.56500000000003,127.97541812987322,209.45675,136.5258020355931,209.45675C145.05282423665255,209.45675,145.05282423665255,214.4995,153.57984643771204,214.4995C162.10686863877152,214.4995,162.10686863877152,211.738,170.63389083983097,211.738C179.16091304089042,211.738,179.16091304089042,286.57925,187.6879352419499,286.57925C196.2383191476698,286.57925,196.2383191476698,287.05875,204.7887030533897,287.05875C213.31572525444915,287.05875,213.31572525444915,285.27025,221.8427474555086,285.27025C230.36976965656805,285.27025,230.36976965656805,342.49600000000004,238.89679185762753,342.49600000000004C247.423814058687,342.49600000000004,247.423814058687,363.51625,255.95083625974644,363.51625C264.5002467611055,363.51625,264.5002467611055,378.33000000000004,273.04965726246456,378.33000000000004C281.576679463524,378.33000000000004,281.576679463524,398.60724999999996,290.10370166458347,398.60724999999996C298.63072386564295,398.60724999999996,298.63072386564295,413.833,307.1577460667024,413.833C315.68476826776185,413.833,315.68476826776185,435.1235,324.21179046882133,435.1235C332.76217437454125,435.1235,332.76217437454125,453.6525,341.3125582802611,453.6525C349.8405538856814,453.6525,349.8405538856814,488.915,358.36854949110176,488.915C366.8955716921612,488.915,366.8955716921612,493.0922499999999,375.42259389322066,493.0922499999999C383.94961609428015,493.0922499999999,383.94961609428015,496.391,392.47663829533957,496.391C401.0270222010595,496.391,401.0270222010595,491.7325000000001,409.5774061067794,491.7325000000001C418.1044283078388,491.7325000000001,418.1044283078388,517.8565,426.6314505088983,517.8565C435.1584727099578,517.8565,435.1584727099578,533.1427500000001,443.6854949110172,533.1427500000001C452.2125171120766,533.1427500000001,452.2125171120766,528.77475,460.7395393131361,528.77475C469.289923218856,528.77475,469.289923218856,518.5005,477.84030712457593,518.5005C486.3673293256354,518.5005,486.3673293256354,499.1875,494.89435152669483,499.1875C503.42137372775426,499.1875,503.42137372775426,483.94,511.94839592881374,483.94C520.4754181298732,483.94,520.4754181298732,491.59625000000005,529.0024403309327,491.59625000000005C537.5528242366526,491.59625000000005,537.5528242366526,492.65575,546.1032081423724,492.65575C554.630230343432,492.65575,554.630230343432,483.76575,563.1572525444915,483.76575C571.684274745551,483.76575,571.684274745551,464.34425,580.2112969466103,464.34425C588.7373457433089,464.34425,588.7373457433089,430.4765,597.2633945400075,430.4765C605.8137784457274,430.4765,605.8137784457274,414.722,614.3641623514474,414.722C622.8921579568677,414.722,622.8921579568677,399.5495,631.420153562288,399.5495C639.9471757633474,399.5495,639.9471757633474,400.53299999999996,648.4741979644069,400.53299999999996C657.0012201654663,400.53299999999996,657.0012201654663,396.98418833402,665.5282423665258,396.98418833402C674.0786262722456,396.98418833402,674.0786262722456,395.63419917134746,682.6290101779656,395.63419917134746C691.156032379025,395.63419917134746,691.156032379025,388.4301227684675,699.6830545800844,388.4301227684675C708.2100767811439,388.4301227684675,708.2100767811439,374.68267582956247,716.7370989822035,374.68267582956247C725.2641211832629,374.68267582956247,725.2641211832629,389.30163082631,733.7911433843224,389.30163082631C742.3415272900422,389.30163082631,742.3415272900422,409.4843714615875,750.8919111957622,409.4843714615875C759.4189333968216,409.4843714615875,759.4189333968216,425.30695315407496,767.945955597881,425.30695315407496C776.4729777989405,425.30695315407496,776.4729777989405,445.0674574762701,785,445.0674574762701L785,462.720927803315C776.4729777989405,462.720927803315,776.4729777989405,440.16495309684,767.945955597881,440.16495309684C759.4189333968216,440.16495309684,759.4189333968216,423.29500373583755,750.8919111957622,423.29500373583755C742.3415272900422,423.29500373583755,742.3415272900422,401.91253580042496,733.7911433843224,401.91253580042496C725.2641211832629,401.91253580042496,725.2641211832629,386.5523219809325,716.7370989822035,386.5523219809325C708.2100767811439,386.5523219809325,708.2100767811439,397.15723985911745,699.6830545800844,397.15723985911745C691.156032379025,397.15723985911745,691.156032379025,403.1143287576125,682.6290101779656,403.1143287576125C674.0786262722456,403.1143287576125,674.0786262722456,402.775502330775,665.5282423665258,402.775502330775C657.0012201654663,402.775502330775,657.0012201654663,404.873,648.4741979644069,404.873C639.9471757633474,404.873,639.9471757633474,402.7415,631.420153562288,402.7415C622.8921579568677,402.7415,622.8921579568677,417.0425,614.3641623514474,417.0425C605.8137784457274,417.0425,605.8137784457274,432.56250000000006,597.2633945400075,432.56250000000006C588.7373457433089,432.56250000000006,588.7373457433089,465.28575,580.2112969466103,465.28575C571.684274745551,465.28575,571.684274745551,484.66175000000004,563.1572525444915,484.66175000000004C554.630230343432,484.66175000000004,554.630230343432,493.61475,546.1032081423724,493.61475C537.5528242366526,493.61475,537.5528242366526,492.96825000000007,529.0024403309327,492.96825000000007C520.4754181298732,492.96825000000007,520.4754181298732,485.452,511.94839592881374,485.452C503.42137372775426,485.452,503.42137372775426,500.7765,494.89435152669483,500.7765C486.3673293256354,500.7765,486.3673293256354,520.5585,477.84030712457593,520.5585C469.289923218856,520.5585,469.289923218856,530.66475,460.7395393131361,530.66475C452.2125171120766,530.66475,452.2125171120766,535.23225,443.6854949110172,535.23225C435.1584727099578,535.23225,435.1584727099578,519.946,426.6314505088983,519.946C418.1044283078388,519.946,418.1044283078388,494.14400000000006,409.5774061067794,494.14400000000006C401.0270222010595,494.14400000000006,401.0270222010595,499.3415,392.47663829533957,499.3415C383.94961609428015,499.3415,383.94961609428015,495.60524999999996,375.42259389322066,495.60524999999996C366.8955716921612,495.60524999999996,366.8955716921612,491.19,358.36854949110176,491.19C349.8405538856814,491.19,349.8405538856814,455.8155,341.3125582802611,455.8155C332.76217437454125,455.8155,332.76217437454125,437.92,324.21179046882133,437.92C315.68476826776185,437.92,315.68476826776185,417.09850000000006,307.1577460667024,417.09850000000006C298.63072386564295,417.09850000000006,298.63072386564295,404.93875,290.10370166458347,404.93875C281.576679463524,404.93875,281.576679463524,390.11449999999996,273.04965726246456,390.11449999999996C264.5002467611055,390.11449999999996,264.5002467611055,388.45725,255.95083625974644,388.45725C247.423814058687,388.45725,247.423814058687,377.37,238.89679185762753,377.37C230.36976965656805,377.37,230.36976965656805,327.65875,221.8427474555086,327.65875C213.31572525444915,327.65875,213.31572525444915,341.71125,204.7887030533897,341.71125C196.2383191476698,341.71125,196.2383191476698,351.24175,187.6879352419499,351.24175C179.16091304089042,351.24175,179.16091304089042,280.2785,170.63389083983097,280.2785C162.10686863877152,280.2785,162.10686863877152,291.783,153.57984643771204,291.783C145.05282423665255,291.783,145.05282423665255,300.3902499999999,136.5258020355931,300.3902499999999C127.97541812987322,300.3902499999999,127.97541812987322,300.315,119.42503422415332,300.315C110.89801202309387,300.315,110.89801202309387,299.04975,102.37098982203442,299.04975C93.84396762097495,299.04975,93.84396762097495,302.37649999999996,85.31694541991548,302.37649999999996C76.78992321885602,302.37649999999996,76.78992321885602,303.143,68.26290101779655,303.143C59.712517112076654,303.143,59.712517112076654,297.88425,51.162133206356756,297.88425C42.635111005297304,297.88425,42.635111005297304,296.57875,34.108088804237845,296.57875C25.581066603178385,296.57875,25.581066603178385,294.75525000000005,17.054044402118922,294.75525000000005C8.527022201059461,294.75525000000005,8.527022201059461,293.9695,0,293.9695Z"><title>Vinyl</title></path></g><g id="xAxis" transform="translate(0,560)" fill="none" font-size="10" font-family="sans-serif" text-anchor="middle"><path class="domain" stroke="currentColor" d="M0,0H785"/><g class="tick" opacity="1" transform="translate(34.108088804237845,0)"><line stroke="currentColor" y2="6"/><text fill="currentColor" y="9" dy="0.71em">1975</text></g><g class="tick" opacity="1" transform="translate(119.42503422415332,0)"><line stroke="currentColor" y2="6"/><text fill="currentColor" y="9" dy="0.71em">1980</text></g><g class="tick" opacity="1" transform="translate(204.7887030533897,0)"><line stroke="currentColor" y2="6"/><text fill="currentColor" y="9" dy="0.71em">1985</text></g><g class="tick" opacity="1" transform="translate(290.10370166458347,0)"><line stroke="currentColor" y2="6"/><text fill="currentColor" y="9" dy="0.71em">1990</text></g><g class="tick" opacity="1" transform="translate(375.42259389322066,0)"><line stroke="currentColor" y2="6"/><text fill="currentColor" y="9" dy="0.71em">1995</text></g><g class="tick" opacity="1" transform="translate(460.7395393131361,0)"><line stroke="currentColor" y2="6"/><text fill="currentColor" y="9" dy="0.71em">2000</text></g><g class="tick" opacity="1" transform="translate(546.1032081423724,0)"><line stroke="currentColor" y2="6"/><text fill="currentColor" y="9" dy="0.71em">2005</text></g><g class="tick" opacity="1" transform="translate(631.420153562288,0)"><line stroke="currentColor" y2="6"/><text fill="currentColor" y="9" dy="0.71em">2010</text></g><g class="tick" opacity="1" transform="translate(716.7370989822035,0)"><line stroke="currentColor" y2="6"/><text fill="currentColor" y="9" dy="0.71em">2015</text></g></g><text y="556" x="785" text-anchor="end" style="font-family: Arial, sans-serif; font-size: 12px; fill: rgb(123, 123, 123); font-weight: bold;">Year</text><text x="4" text-anchor="start" dominant-baseline="hanging" style="font-family: Arial, sans-serif; font-size: 12px; fill: rgb(123, 123, 123); font-weight: bold;">Revenues in millions</text><g id="labels"><text x="290.10370166458347" y="210.31099999999992" text-anchor="middle" alignment-baseline="middle" style="font-family: Arial, sans-serif; font-size: 10px; fill: black; font-weight: bold;">Tape</text><text x="460.7395393131361" y="260.08625" text-anchor="middle" alignment-baseline="middle" style="font-family: Arial, sans-serif; font-size: 10px; fill: black; font-weight: bold;">Disc</text><text x="665.5282423665258" y="206.00848880847502" text-anchor="middle" alignment-baseline="middle" style="font-family: Arial, sans-serif; font-size: 10px; fill: black; font-weight: bold;">Download</text><text x="546.1032081423724" y="473.96774999999997" text-anchor="middle" alignment-baseline="middle" style="font-family: Arial, sans-serif; font-size: 10px; fill: black; font-weight: bold;">Other</text><text x="785" y="236.09525596314998" text-anchor="end" alignment-baseline="middle" style="font-family: Arial, sans-serif; font-size: 10px; fill: black; font-weight: bold;">Streaming</text><text x="85.31694541991548" y="254.5385" text-anchor="middle" alignment-baseline="middle" style="font-family: Arial, sans-serif; font-size: 10px; fill: black; font-weight: bold;">Vinyl</text></g></g><text x="4" y="4" style="font-family: Arial, sans-serif; font-size: 12px; fill: black; font-weight: bold; dominant-baseline: hanging;"/></g></g></svg>